<?xml version="1.0" encoding="utf-8" standalone="no"?>
<!DOCTYPE svg PUBLIC "-//W3C//DTD SVG 1.1//EN"
  "http://www.w3.org/Graphics/SVG/1.1/DTD/svg11.dtd">
<svg xmlns:xlink="http://www.w3.org/1999/xlink" width="518.4pt" height="792pt" viewBox="0 0 518.4 792" xmlns="http://www.w3.org/2000/svg" version="1.1">
 <metadata>
  <rdf:RDF xmlns:dc="http://purl.org/dc/elements/1.1/" xmlns:cc="http://creativecommons.org/ns#" xmlns:rdf="http://www.w3.org/1999/02/22-rdf-syntax-ns#">
   <cc:Work>
    <dc:type rdf:resource="http://purl.org/dc/dcmitype/StillImage"/>
    <dc:date>2026-08-22T03:27:32.404920</dc:date>
    <dc:format>image/svg+xml</dc:format>
    <dc:creator>
     <cc:Agent>
      <dc:title>Matplotlib v3.6.3, https://matplotlib.org/</dc:title>
     </cc:Agent>
    </dc:creator>
   </cc:Work>
  </rdf:RDF>
 </metadata>
 <defs>
  <style type="text/css">*{stroke-linejoin: round; stroke-linecap: butt}</style>
 </defs>
 <g id="figure_1">
  <g id="patch_1">
   <path d="M 0 792 
L 518.4 792 
L 518.4 0 
L 0 0 
z
" style="fill: #ffffff"/>
  </g>
  <g id="axes_1">
   <g id="patch_2">
    <path d="M 61.958597 257.047353 
L 472.261403 257.047353 
L 472.261403 34.8 
L 61.958597 34.8 
z
" style="fill: #ffffff"/>
   </g>
   <g id="line2d_1">
    <path d="M 306.430686 198.066325 
L 306.430686 213.45268 
L 253.43324 213.45268 
L 253.43324 198.066325 
L 306.430686 198.066325 
" clip-path="url(#pfb6a7b79a2)" style="fill: none; stroke: #c0c8d1; stroke-width: 0.6; stroke-linecap: square"/>
   </g>
   <g id="line2d_2">
    <path d="M 323.357292 177.316107 
L 329.346741 191.488843 
L 280.52954 212.119164 
L 274.540092 197.946428 
L 323.357292 177.316107 
" clip-path="url(#pfb6a7b79a2)" style="fill: none; stroke: #c0c8d1; stroke-width: 0.6; stroke-linecap: square"/>
   </g>
   <g id="line2d_3">
    <path d="M 330.871351 151.613569 
L 341.905396 162.336898 
L 304.969485 200.343052 
L 293.93544 189.619723 
L 330.871351 151.613569 
" clip-path="url(#pfb6a7b79a2)" style="fill: none; stroke: #c0c8d1; stroke-width: 0.6; stroke-linecap: square"/>
   </g>
   <g id="line2d_4">
    <path d="M 327.787498 125.013354 
L 342.125489 130.595643 
L 322.897607 179.982056 
L 308.559616 174.399768 
L 327.787498 125.013354 
" clip-path="url(#pfb6a7b79a2)" style="fill: none; stroke: #c0c8d1; stroke-width: 0.6; stroke-linecap: square"/>
   </g>
   <g id="line2d_5">
    <path d="M 314.59222 101.71172 
L 329.972301 101.272346 
L 331.485698 154.248179 
L 316.105618 154.687552 
L 314.59222 101.71172 
" clip-path="url(#pfb6a7b79a2)" style="fill: none; stroke: #c0c8d1; stroke-width: 0.6; stroke-linecap: square"/>
   </g>
   <g id="line2d_6">
    <path d="M 293.367108 85.38456 
L 307.363029 78.992837 
L 329.378963 127.201009 
L 315.383042 133.592732 
L 293.367108 85.38456 
" clip-path="url(#pfb6a7b79a2)" style="fill: none; stroke: #c0c8d1; stroke-width: 0.6; stroke-linecap: square"/>
   </g>
   <g id="line2d_7">
    <path d="M 267.460479 78.607528 
L 277.864346 67.271768 
L 316.909745 103.10731 
L 306.505878 114.443071 
L 267.460479 78.607528 
" clip-path="url(#pfb6a7b79a2)" style="fill: none; stroke: #c0c8d1; stroke-width: 0.6; stroke-linecap: square"/>
   </g>
   <g id="line2d_8">
    <path d="M 240.959175 82.449721 
L 246.129751 67.958169 
L 296.045096 85.767928 
L 290.874521 100.25948 
L 240.959175 82.449721 
" clip-path="url(#pfb6a7b79a2)" style="fill: none; stroke: #c0c8d1; stroke-width: 0.6; stroke-linecap: square"/>
   </g>
   <g id="matplotlib.axis_1">
    <g id="xtick_1">
     <g id="line2d_9">
      <defs>
       <path id="m694debfcd8" d="M 0 0 
L 0 3.5 
" style="stroke: #000000; stroke-width: 0.8"/>
      </defs>
      <g>
       <use xlink:href="#m694debfcd8" x="79.054548" y="257.047353" style="stroke: #000000; stroke-width: 0.8"/>
      </g>
     </g>
     <g id="text_1">
      <!-- −10 -->
      <g transform="translate(72.723141 268.606415) scale(0.06 -0.06)">
       <defs>
        <path id="DejaVuSans-2212" d="M 678 2272 
L 4684 2272 
L 4684 1741 
L 678 1741 
L 678 2272 
z
" transform="scale(0.015625)"/>
        <path id="DejaVuSans-31" d="M 794 531 
L 1825 531 
L 1825 4091 
L 703 3866 
L 703 4441 
L 1819 4666 
L 2450 4666 
L 2450 531 
L 3481 531 
L 3481 0 
L 794 0 
L 794 531 
z
" transform="scale(0.015625)"/>
        <path id="DejaVuSans-30" d="M 2034 4250 
Q 1547 4250 1301 3770 
Q 1056 3291 1056 2328 
Q 1056 1369 1301 889 
Q 1547 409 2034 409 
Q 2525 409 2770 889 
Q 3016 1369 3016 2328 
Q 3016 3291 2770 3770 
Q 2525 4250 2034 4250 
z
M 2034 4750 
Q 2819 4750 3233 4129 
Q 3647 3509 3647 2328 
Q 3647 1150 3233 529 
Q 2819 -91 2034 -91 
Q 1250 -91 836 529 
Q 422 1150 422 2328 
Q 422 3509 836 4129 
Q 1250 4750 2034 4750 
z
" transform="scale(0.015625)"/>
       </defs>
       <use xlink:href="#DejaVuSans-2212"/>
       <use xlink:href="#DejaVuSans-31" x="83.789062"/>
       <use xlink:href="#DejaVuSans-30" x="147.412109"/>
      </g>
     </g>
    </g>
    <g id="xtick_2">
     <g id="line2d_10">
      <g>
       <use xlink:href="#m694debfcd8" x="164.534299" y="257.047353" style="stroke: #000000; stroke-width: 0.8"/>
      </g>
     </g>
     <g id="text_2">
      <!-- −5 -->
      <g transform="translate(160.111642 268.606415) scale(0.06 -0.06)">
       <defs>
        <path id="DejaVuSans-35" d="M 691 4666 
L 3169 4666 
L 3169 4134 
L 1269 4134 
L 1269 2991 
Q 1406 3038 1543 3061 
Q 1681 3084 1819 3084 
Q 2600 3084 3056 2656 
Q 3513 2228 3513 1497 
Q 3513 744 3044 326 
Q 2575 -91 1722 -91 
Q 1428 -91 1123 -41 
Q 819 9 494 109 
L 494 744 
Q 775 591 1075 516 
Q 1375 441 1709 441 
Q 2250 441 2565 725 
Q 2881 1009 2881 1497 
Q 2881 1984 2565 2268 
Q 2250 2553 1709 2553 
Q 1456 2553 1204 2497 
Q 953 2441 691 2322 
L 691 4666 
z
" transform="scale(0.015625)"/>
       </defs>
       <use xlink:href="#DejaVuSans-2212"/>
       <use xlink:href="#DejaVuSans-35" x="83.789062"/>
      </g>
     </g>
    </g>
    <g id="xtick_3">
     <g id="line2d_11">
      <g>
       <use xlink:href="#m694debfcd8" x="250.01405" y="257.047353" style="stroke: #000000; stroke-width: 0.8"/>
      </g>
     </g>
     <g id="text_3">
      <!-- 0 -->
      <g transform="translate(248.1053 268.606415) scale(0.06 -0.06)">
       <use xlink:href="#DejaVuSans-30"/>
      </g>
     </g>
    </g>
    <g id="xtick_4">
     <g id="line2d_12">
      <g>
       <use xlink:href="#m694debfcd8" x="335.493801" y="257.047353" style="stroke: #000000; stroke-width: 0.8"/>
      </g>
     </g>
     <g id="text_4">
      <!-- 5 -->
      <g transform="translate(333.585051 268.606415) scale(0.06 -0.06)">
       <use xlink:href="#DejaVuSans-35"/>
      </g>
     </g>
    </g>
    <g id="xtick_5">
     <g id="line2d_13">
      <g>
       <use xlink:href="#m694debfcd8" x="420.973552" y="257.047353" style="stroke: #000000; stroke-width: 0.8"/>
      </g>
     </g>
     <g id="text_5">
      <!-- 10 -->
      <g transform="translate(417.156052 268.606415) scale(0.06 -0.06)">
       <use xlink:href="#DejaVuSans-31"/>
       <use xlink:href="#DejaVuSans-30" x="63.623047"/>
      </g>
     </g>
    </g>
    <g id="text_6">
     <!-- along the row, out of the mouth (m) -->
     <g transform="translate(204.055859 279.173134) scale(0.07 -0.07)">
      <defs>
       <path id="DejaVuSans-61" d="M 2194 1759 
Q 1497 1759 1228 1600 
Q 959 1441 959 1056 
Q 959 750 1161 570 
Q 1363 391 1709 391 
Q 2188 391 2477 730 
Q 2766 1069 2766 1631 
L 2766 1759 
L 2194 1759 
z
M 3341 1997 
L 3341 0 
L 2766 0 
L 2766 531 
Q 2569 213 2275 61 
Q 1981 -91 1556 -91 
Q 1019 -91 701 211 
Q 384 513 384 1019 
Q 384 1609 779 1909 
Q 1175 2209 1959 2209 
L 2766 2209 
L 2766 2266 
Q 2766 2663 2505 2880 
Q 2244 3097 1772 3097 
Q 1472 3097 1187 3025 
Q 903 2953 641 2809 
L 641 3341 
Q 956 3463 1253 3523 
Q 1550 3584 1831 3584 
Q 2591 3584 2966 3190 
Q 3341 2797 3341 1997 
z
" transform="scale(0.015625)"/>
       <path id="DejaVuSans-6c" d="M 603 4863 
L 1178 4863 
L 1178 0 
L 603 0 
L 603 4863 
z
" transform="scale(0.015625)"/>
       <path id="DejaVuSans-6f" d="M 1959 3097 
Q 1497 3097 1228 2736 
Q 959 2375 959 1747 
Q 959 1119 1226 758 
Q 1494 397 1959 397 
Q 2419 397 2687 759 
Q 2956 1122 2956 1747 
Q 2956 2369 2687 2733 
Q 2419 3097 1959 3097 
z
M 1959 3584 
Q 2709 3584 3137 3096 
Q 3566 2609 3566 1747 
Q 3566 888 3137 398 
Q 2709 -91 1959 -91 
Q 1206 -91 779 398 
Q 353 888 353 1747 
Q 353 2609 779 3096 
Q 1206 3584 1959 3584 
z
" transform="scale(0.015625)"/>
       <path id="DejaVuSans-6e" d="M 3513 2113 
L 3513 0 
L 2938 0 
L 2938 2094 
Q 2938 2591 2744 2837 
Q 2550 3084 2163 3084 
Q 1697 3084 1428 2787 
Q 1159 2491 1159 1978 
L 1159 0 
L 581 0 
L 581 3500 
L 1159 3500 
L 1159 2956 
Q 1366 3272 1645 3428 
Q 1925 3584 2291 3584 
Q 2894 3584 3203 3211 
Q 3513 2838 3513 2113 
z
" transform="scale(0.015625)"/>
       <path id="DejaVuSans-67" d="M 2906 1791 
Q 2906 2416 2648 2759 
Q 2391 3103 1925 3103 
Q 1463 3103 1205 2759 
Q 947 2416 947 1791 
Q 947 1169 1205 825 
Q 1463 481 1925 481 
Q 2391 481 2648 825 
Q 2906 1169 2906 1791 
z
M 3481 434 
Q 3481 -459 3084 -895 
Q 2688 -1331 1869 -1331 
Q 1566 -1331 1297 -1286 
Q 1028 -1241 775 -1147 
L 775 -588 
Q 1028 -725 1275 -790 
Q 1522 -856 1778 -856 
Q 2344 -856 2625 -561 
Q 2906 -266 2906 331 
L 2906 616 
Q 2728 306 2450 153 
Q 2172 0 1784 0 
Q 1141 0 747 490 
Q 353 981 353 1791 
Q 353 2603 747 3093 
Q 1141 3584 1784 3584 
Q 2172 3584 2450 3431 
Q 2728 3278 2906 2969 
L 2906 3500 
L 3481 3500 
L 3481 434 
z
" transform="scale(0.015625)"/>
       <path id="DejaVuSans-20" transform="scale(0.015625)"/>
       <path id="DejaVuSans-74" d="M 1172 4494 
L 1172 3500 
L 2356 3500 
L 2356 3053 
L 1172 3053 
L 1172 1153 
Q 1172 725 1289 603 
Q 1406 481 1766 481 
L 2356 481 
L 2356 0 
L 1766 0 
Q 1100 0 847 248 
Q 594 497 594 1153 
L 594 3053 
L 172 3053 
L 172 3500 
L 594 3500 
L 594 4494 
L 1172 4494 
z
" transform="scale(0.015625)"/>
       <path id="DejaVuSans-68" d="M 3513 2113 
L 3513 0 
L 2938 0 
L 2938 2094 
Q 2938 2591 2744 2837 
Q 2550 3084 2163 3084 
Q 1697 3084 1428 2787 
Q 1159 2491 1159 1978 
L 1159 0 
L 581 0 
L 581 4863 
L 1159 4863 
L 1159 2956 
Q 1366 3272 1645 3428 
Q 1925 3584 2291 3584 
Q 2894 3584 3203 3211 
Q 3513 2838 3513 2113 
z
" transform="scale(0.015625)"/>
       <path id="DejaVuSans-65" d="M 3597 1894 
L 3597 1613 
L 953 1613 
Q 991 1019 1311 708 
Q 1631 397 2203 397 
Q 2534 397 2845 478 
Q 3156 559 3463 722 
L 3463 178 
Q 3153 47 2828 -22 
Q 2503 -91 2169 -91 
Q 1331 -91 842 396 
Q 353 884 353 1716 
Q 353 2575 817 3079 
Q 1281 3584 2069 3584 
Q 2775 3584 3186 3129 
Q 3597 2675 3597 1894 
z
M 3022 2063 
Q 3016 2534 2758 2815 
Q 2500 3097 2075 3097 
Q 1594 3097 1305 2825 
Q 1016 2553 972 2059 
L 3022 2063 
z
" transform="scale(0.015625)"/>
       <path id="DejaVuSans-72" d="M 2631 2963 
Q 2534 3019 2420 3045 
Q 2306 3072 2169 3072 
Q 1681 3072 1420 2755 
Q 1159 2438 1159 1844 
L 1159 0 
L 581 0 
L 581 3500 
L 1159 3500 
L 1159 2956 
Q 1341 3275 1631 3429 
Q 1922 3584 2338 3584 
Q 2397 3584 2469 3576 
Q 2541 3569 2628 3553 
L 2631 2963 
z
" transform="scale(0.015625)"/>
       <path id="DejaVuSans-77" d="M 269 3500 
L 844 3500 
L 1563 769 
L 2278 3500 
L 2956 3500 
L 3675 769 
L 4391 3500 
L 4966 3500 
L 4050 0 
L 3372 0 
L 2619 2869 
L 1863 0 
L 1184 0 
L 269 3500 
z
" transform="scale(0.015625)"/>
       <path id="DejaVuSans-2c" d="M 750 794 
L 1409 794 
L 1409 256 
L 897 -744 
L 494 -744 
L 750 256 
L 750 794 
z
" transform="scale(0.015625)"/>
       <path id="DejaVuSans-75" d="M 544 1381 
L 544 3500 
L 1119 3500 
L 1119 1403 
Q 1119 906 1312 657 
Q 1506 409 1894 409 
Q 2359 409 2629 706 
Q 2900 1003 2900 1516 
L 2900 3500 
L 3475 3500 
L 3475 0 
L 2900 0 
L 2900 538 
Q 2691 219 2414 64 
Q 2138 -91 1772 -91 
Q 1169 -91 856 284 
Q 544 659 544 1381 
z
M 1991 3584 
L 1991 3584 
z
" transform="scale(0.015625)"/>
       <path id="DejaVuSans-66" d="M 2375 4863 
L 2375 4384 
L 1825 4384 
Q 1516 4384 1395 4259 
Q 1275 4134 1275 3809 
L 1275 3500 
L 2222 3500 
L 2222 3053 
L 1275 3053 
L 1275 0 
L 697 0 
L 697 3053 
L 147 3053 
L 147 3500 
L 697 3500 
L 697 3744 
Q 697 4328 969 4595 
Q 1241 4863 1831 4863 
L 2375 4863 
z
" transform="scale(0.015625)"/>
       <path id="DejaVuSans-6d" d="M 3328 2828 
Q 3544 3216 3844 3400 
Q 4144 3584 4550 3584 
Q 5097 3584 5394 3201 
Q 5691 2819 5691 2113 
L 5691 0 
L 5113 0 
L 5113 2094 
Q 5113 2597 4934 2840 
Q 4756 3084 4391 3084 
Q 3944 3084 3684 2787 
Q 3425 2491 3425 1978 
L 3425 0 
L 2847 0 
L 2847 2094 
Q 2847 2600 2669 2842 
Q 2491 3084 2119 3084 
Q 1678 3084 1418 2786 
Q 1159 2488 1159 1978 
L 1159 0 
L 581 0 
L 581 3500 
L 1159 3500 
L 1159 2956 
Q 1356 3278 1631 3431 
Q 1906 3584 2284 3584 
Q 2666 3584 2933 3390 
Q 3200 3197 3328 2828 
z
" transform="scale(0.015625)"/>
       <path id="DejaVuSans-28" d="M 1984 4856 
Q 1566 4138 1362 3434 
Q 1159 2731 1159 2009 
Q 1159 1288 1364 580 
Q 1569 -128 1984 -844 
L 1484 -844 
Q 1016 -109 783 600 
Q 550 1309 550 2009 
Q 550 2706 781 3412 
Q 1013 4119 1484 4856 
L 1984 4856 
z
" transform="scale(0.015625)"/>
       <path id="DejaVuSans-29" d="M 513 4856 
L 1013 4856 
Q 1481 4119 1714 3412 
Q 1947 2706 1947 2009 
Q 1947 1309 1714 600 
Q 1481 -109 1013 -844 
L 513 -844 
Q 928 -128 1133 580 
Q 1338 1288 1338 2009 
Q 1338 2731 1133 3434 
Q 928 4138 513 4856 
z
" transform="scale(0.015625)"/>
      </defs>
      <use xlink:href="#DejaVuSans-61"/>
      <use xlink:href="#DejaVuSans-6c" x="61.279297"/>
      <use xlink:href="#DejaVuSans-6f" x="89.0625"/>
      <use xlink:href="#DejaVuSans-6e" x="150.244141"/>
      <use xlink:href="#DejaVuSans-67" x="213.623047"/>
      <use xlink:href="#DejaVuSans-20" x="277.099609"/>
      <use xlink:href="#DejaVuSans-74" x="308.886719"/>
      <use xlink:href="#DejaVuSans-68" x="348.095703"/>
      <use xlink:href="#DejaVuSans-65" x="411.474609"/>
      <use xlink:href="#DejaVuSans-20" x="472.998047"/>
      <use xlink:href="#DejaVuSans-72" x="504.785156"/>
      <use xlink:href="#DejaVuSans-6f" x="543.648438"/>
      <use xlink:href="#DejaVuSans-77" x="604.830078"/>
      <use xlink:href="#DejaVuSans-2c" x="686.617188"/>
      <use xlink:href="#DejaVuSans-20" x="718.404297"/>
      <use xlink:href="#DejaVuSans-6f" x="750.191406"/>
      <use xlink:href="#DejaVuSans-75" x="811.373047"/>
      <use xlink:href="#DejaVuSans-74" x="874.751953"/>
      <use xlink:href="#DejaVuSans-20" x="913.960938"/>
      <use xlink:href="#DejaVuSans-6f" x="945.748047"/>
      <use xlink:href="#DejaVuSans-66" x="1006.929688"/>
      <use xlink:href="#DejaVuSans-20" x="1042.134766"/>
      <use xlink:href="#DejaVuSans-74" x="1073.921875"/>
      <use xlink:href="#DejaVuSans-68" x="1113.130859"/>
      <use xlink:href="#DejaVuSans-65" x="1176.509766"/>
      <use xlink:href="#DejaVuSans-20" x="1238.033203"/>
      <use xlink:href="#DejaVuSans-6d" x="1269.820312"/>
      <use xlink:href="#DejaVuSans-6f" x="1367.232422"/>
      <use xlink:href="#DejaVuSans-75" x="1428.414062"/>
      <use xlink:href="#DejaVuSans-74" x="1491.792969"/>
      <use xlink:href="#DejaVuSans-68" x="1531.001953"/>
      <use xlink:href="#DejaVuSans-20" x="1594.380859"/>
      <use xlink:href="#DejaVuSans-28" x="1626.167969"/>
      <use xlink:href="#DejaVuSans-6d" x="1665.181641"/>
      <use xlink:href="#DejaVuSans-29" x="1762.59375"/>
     </g>
    </g>
   </g>
   <g id="matplotlib.axis_2">
    <g id="ytick_1">
     <g id="line2d_14">
      <defs>
       <path id="m38d8fc73f7" d="M 0 0 
L -3.5 0 
" style="stroke: #000000; stroke-width: 0.8"/>
      </defs>
      <g>
       <use xlink:href="#m38d8fc73f7" x="61.958597" y="239.951403" style="stroke: #000000; stroke-width: 0.8"/>
      </g>
     </g>
     <g id="text_7">
      <!-- −2 -->
      <g transform="translate(46.113285 242.230934) scale(0.06 -0.06)">
       <defs>
        <path id="DejaVuSans-32" d="M 1228 531 
L 3431 531 
L 3431 0 
L 469 0 
L 469 531 
Q 828 903 1448 1529 
Q 2069 2156 2228 2338 
Q 2531 2678 2651 2914 
Q 2772 3150 2772 3378 
Q 2772 3750 2511 3984 
Q 2250 4219 1831 4219 
Q 1534 4219 1204 4116 
Q 875 4013 500 3803 
L 500 4441 
Q 881 4594 1212 4672 
Q 1544 4750 1819 4750 
Q 2544 4750 2975 4387 
Q 3406 4025 3406 3419 
Q 3406 3131 3298 2873 
Q 3191 2616 2906 2266 
Q 2828 2175 2409 1742 
Q 1991 1309 1228 531 
z
" transform="scale(0.015625)"/>
       </defs>
       <use xlink:href="#DejaVuSans-2212"/>
       <use xlink:href="#DejaVuSans-32" x="83.789062"/>
      </g>
     </g>
    </g>
    <g id="ytick_2">
     <g id="line2d_15">
      <g>
       <use xlink:href="#m38d8fc73f7" x="61.958597" y="205.759502" style="stroke: #000000; stroke-width: 0.8"/>
      </g>
     </g>
     <g id="text_8">
      <!-- 0 -->
      <g transform="translate(51.141097 208.039034) scale(0.06 -0.06)">
       <use xlink:href="#DejaVuSans-30"/>
      </g>
     </g>
    </g>
    <g id="ytick_3">
     <g id="line2d_16">
      <g>
       <use xlink:href="#m38d8fc73f7" x="61.958597" y="171.567602" style="stroke: #000000; stroke-width: 0.8"/>
      </g>
     </g>
     <g id="text_9">
      <!-- 2 -->
      <g transform="translate(51.141097 173.847133) scale(0.06 -0.06)">
       <use xlink:href="#DejaVuSans-32"/>
      </g>
     </g>
    </g>
    <g id="ytick_4">
     <g id="line2d_17">
      <g>
       <use xlink:href="#m38d8fc73f7" x="61.958597" y="137.375701" style="stroke: #000000; stroke-width: 0.8"/>
      </g>
     </g>
     <g id="text_10">
      <!-- 4 -->
      <g transform="translate(51.141097 139.655233) scale(0.06 -0.06)">
       <defs>
        <path id="DejaVuSans-34" d="M 2419 4116 
L 825 1625 
L 2419 1625 
L 2419 4116 
z
M 2253 4666 
L 3047 4666 
L 3047 1625 
L 3713 1625 
L 3713 1100 
L 3047 1100 
L 3047 0 
L 2419 0 
L 2419 1100 
L 313 1100 
L 313 1709 
L 2253 4666 
z
" transform="scale(0.015625)"/>
       </defs>
       <use xlink:href="#DejaVuSans-34"/>
      </g>
     </g>
    </g>
    <g id="ytick_5">
     <g id="line2d_18">
      <g>
       <use xlink:href="#m38d8fc73f7" x="61.958597" y="103.183801" style="stroke: #000000; stroke-width: 0.8"/>
      </g>
     </g>
     <g id="text_11">
      <!-- 6 -->
      <g transform="translate(51.141097 105.463332) scale(0.06 -0.06)">
       <defs>
        <path id="DejaVuSans-36" d="M 2113 2584 
Q 1688 2584 1439 2293 
Q 1191 2003 1191 1497 
Q 1191 994 1439 701 
Q 1688 409 2113 409 
Q 2538 409 2786 701 
Q 3034 994 3034 1497 
Q 3034 2003 2786 2293 
Q 2538 2584 2113 2584 
z
M 3366 4563 
L 3366 3988 
Q 3128 4100 2886 4159 
Q 2644 4219 2406 4219 
Q 1781 4219 1451 3797 
Q 1122 3375 1075 2522 
Q 1259 2794 1537 2939 
Q 1816 3084 2150 3084 
Q 2853 3084 3261 2657 
Q 3669 2231 3669 1497 
Q 3669 778 3244 343 
Q 2819 -91 2113 -91 
Q 1303 -91 875 529 
Q 447 1150 447 2328 
Q 447 3434 972 4092 
Q 1497 4750 2381 4750 
Q 2619 4750 2861 4703 
Q 3103 4656 3366 4563 
z
" transform="scale(0.015625)"/>
       </defs>
       <use xlink:href="#DejaVuSans-36"/>
      </g>
     </g>
    </g>
    <g id="ytick_6">
     <g id="line2d_19">
      <g>
       <use xlink:href="#m38d8fc73f7" x="61.958597" y="68.9919" style="stroke: #000000; stroke-width: 0.8"/>
      </g>
     </g>
     <g id="text_12">
      <!-- 8 -->
      <g transform="translate(51.141097 71.271432) scale(0.06 -0.06)">
       <defs>
        <path id="DejaVuSans-38" d="M 2034 2216 
Q 1584 2216 1326 1975 
Q 1069 1734 1069 1313 
Q 1069 891 1326 650 
Q 1584 409 2034 409 
Q 2484 409 2743 651 
Q 3003 894 3003 1313 
Q 3003 1734 2745 1975 
Q 2488 2216 2034 2216 
z
M 1403 2484 
Q 997 2584 770 2862 
Q 544 3141 544 3541 
Q 544 4100 942 4425 
Q 1341 4750 2034 4750 
Q 2731 4750 3128 4425 
Q 3525 4100 3525 3541 
Q 3525 3141 3298 2862 
Q 3072 2584 2669 2484 
Q 3125 2378 3379 2068 
Q 3634 1759 3634 1313 
Q 3634 634 3220 271 
Q 2806 -91 2034 -91 
Q 1263 -91 848 271 
Q 434 634 434 1313 
Q 434 1759 690 2068 
Q 947 2378 1403 2484 
z
M 1172 3481 
Q 1172 3119 1398 2916 
Q 1625 2713 2034 2713 
Q 2441 2713 2670 2916 
Q 2900 3119 2900 3481 
Q 2900 3844 2670 4047 
Q 2441 4250 2034 4250 
Q 1625 4250 1398 4047 
Q 1172 3844 1172 3481 
z
" transform="scale(0.015625)"/>
       </defs>
       <use xlink:href="#DejaVuSans-38"/>
      </g>
     </g>
    </g>
    <g id="ytick_7">
     <g id="line2d_20">
      <g>
       <use xlink:href="#m38d8fc73f7" x="61.958597" y="34.8" style="stroke: #000000; stroke-width: 0.8"/>
      </g>
     </g>
     <g id="text_13">
      <!-- 10 -->
      <g transform="translate(47.323597 37.079531) scale(0.06 -0.06)">
       <use xlink:href="#DejaVuSans-31"/>
       <use xlink:href="#DejaVuSans-30" x="63.623047"/>
      </g>
     </g>
    </g>
   </g>
   <g id="line2d_21">
    <path d="M 250.01405 257.047353 
L 250.01405 34.8 
" clip-path="url(#pfb6a7b79a2)" style="fill: none; stroke: #1b2a41; stroke-width: 1.4; stroke-linecap: square"/>
   </g>
   <g id="line2d_22">
    <path d="M 386.781652 257.047353 
L 386.781652 34.8 
" clip-path="url(#pfb6a7b79a2)" style="fill: none; stroke-dasharray: 4.44,1.92; stroke-dashoffset: 0; stroke: #b3402f; stroke-width: 1.2"/>
   </g>
   <g id="line2d_23">
    <path d="M 343.607172 257.047353 
L 343.607172 34.8 
" clip-path="url(#pfb6a7b79a2)" style="fill: none; stroke-dasharray: 1,1.65; stroke-dashoffset: 0; stroke: #0b6e4f"/>
   </g>
   <g id="line2d_24">
    <path d="M 61.958597 205.759502 
L 250.01405 205.759502 
" clip-path="url(#pfb6a7b79a2)" style="fill: none; stroke: #1b2a41; stroke-opacity: 0.18; stroke-width: 6"/>
   </g>
   <g id="line2d_25">
    <path d="M 61.958597 86.087851 
L 250.01405 86.087851 
" clip-path="url(#pfb6a7b79a2)" style="fill: none; stroke: #1b2a41; stroke-opacity: 0.18; stroke-width: 6"/>
   </g>
   <g id="patch_3">
    <path d="M 61.958597 257.047353 
L 61.958597 34.8 
" style="fill: none; stroke: #000000; stroke-width: 0.8; stroke-linejoin: miter; stroke-linecap: square"/>
   </g>
   <g id="patch_4">
    <path d="M 61.958597 257.047353 
L 472.261403 257.047353 
" style="fill: none; stroke: #000000; stroke-width: 0.8; stroke-linejoin: miter; stroke-linecap: square"/>
   </g>
   <g id="line2d_26">
    <path d="M 263.69081 205.759502 
L 267.106795 205.661915 
L 270.511638 205.369473 
L 273.894233 204.883129 
L 277.243546 204.204471 
L 280.548653 203.33571 
L 283.798774 202.279682 
L 286.983306 201.039831 
L 290.091863 199.6202 
L 293.114306 198.025421 
L 296.040775 196.260696 
L 298.861725 194.331779 
L 301.567955 192.244964 
L 304.150637 190.007057 
L 306.601348 187.625357 
L 308.912094 185.107634 
L 311.075337 182.462099 
L 313.084022 179.697381 
L 314.931597 176.822499 
L 316.612034 173.84683 
L 318.119854 170.78008 
L 319.450137 167.632251 
L 320.598546 164.413612 
L 321.561332 161.134661 
L 322.335358 157.806094 
L 322.918097 154.438766 
L 323.307648 151.043663 
L 323.502742 147.631857 
L 323.502742 144.214479 
L 323.307648 140.802673 
L 322.918097 137.40757 
L 322.335358 134.040243 
L 321.561332 130.711675 
L 320.598546 127.432724 
L 319.450137 124.214085 
L 318.119854 121.066257 
L 316.612034 117.999506 
L 314.931597 115.023837 
L 313.084022 112.148955 
L 311.075337 109.384237 
L 308.912094 106.738702 
L 306.601348 104.220979 
L 304.150637 101.839279 
L 301.567955 99.601372 
L 298.861725 97.514557 
L 296.040775 95.585641 
L 293.114306 93.820915 
L 290.091863 92.226136 
L 286.983306 90.806505 
L 283.798774 89.566654 
L 280.548653 88.510626 
L 277.243546 87.641865 
L 273.894233 86.963207 
L 270.511638 86.476863 
L 267.106795 86.184421 
L 263.69081 86.086834 
L 263.69081 86.086834 
" clip-path="url(#pfb6a7b79a2)" style="fill: none; stroke: #0b6e4f; stroke-width: 2; stroke-linecap: square"/>
   </g>
   <g id="text_14">
    <!--  headland 8.0 m -->
    <g style="fill: #b3402f" transform="translate(392.100558 229.693833) rotate(-90) scale(0.07 -0.07)">
     <defs>
      <path id="DejaVuSans-64" d="M 2906 2969 
L 2906 4863 
L 3481 4863 
L 3481 0 
L 2906 0 
L 2906 525 
Q 2725 213 2448 61 
Q 2172 -91 1784 -91 
Q 1150 -91 751 415 
Q 353 922 353 1747 
Q 353 2572 751 3078 
Q 1150 3584 1784 3584 
Q 2172 3584 2448 3432 
Q 2725 3281 2906 2969 
z
M 947 1747 
Q 947 1113 1208 752 
Q 1469 391 1925 391 
Q 2381 391 2643 752 
Q 2906 1113 2906 1747 
Q 2906 2381 2643 2742 
Q 2381 3103 1925 3103 
Q 1469 3103 1208 2742 
Q 947 2381 947 1747 
z
" transform="scale(0.015625)"/>
      <path id="DejaVuSans-2e" d="M 684 794 
L 1344 794 
L 1344 0 
L 684 0 
L 684 794 
z
" transform="scale(0.015625)"/>
     </defs>
     <use xlink:href="#DejaVuSans-20"/>
     <use xlink:href="#DejaVuSans-68" x="31.787109"/>
     <use xlink:href="#DejaVuSans-65" x="95.166016"/>
     <use xlink:href="#DejaVuSans-61" x="156.689453"/>
     <use xlink:href="#DejaVuSans-64" x="217.96875"/>
     <use xlink:href="#DejaVuSans-6c" x="281.445312"/>
     <use xlink:href="#DejaVuSans-61" x="309.228516"/>
     <use xlink:href="#DejaVuSans-6e" x="370.507812"/>
     <use xlink:href="#DejaVuSans-64" x="433.886719"/>
     <use xlink:href="#DejaVuSans-20" x="497.363281"/>
     <use xlink:href="#DejaVuSans-38" x="529.150391"/>
     <use xlink:href="#DejaVuSans-2e" x="592.773438"/>
     <use xlink:href="#DejaVuSans-30" x="624.560547"/>
     <use xlink:href="#DejaVuSans-20" x="688.183594"/>
     <use xlink:href="#DejaVuSans-6d" x="719.970703"/>
    </g>
   </g>
   <g id="text_15">
    <!--  reach 5.5 m -->
    <g style="fill: #0b6e4f" transform="translate(348.926078 229.693833) rotate(-90) scale(0.07 -0.07)">
     <defs>
      <path id="DejaVuSans-63" d="M 3122 3366 
L 3122 2828 
Q 2878 2963 2633 3030 
Q 2388 3097 2138 3097 
Q 1578 3097 1268 2742 
Q 959 2388 959 1747 
Q 959 1106 1268 751 
Q 1578 397 2138 397 
Q 2388 397 2633 464 
Q 2878 531 3122 666 
L 3122 134 
Q 2881 22 2623 -34 
Q 2366 -91 2075 -91 
Q 1284 -91 818 406 
Q 353 903 353 1747 
Q 353 2603 823 3093 
Q 1294 3584 2113 3584 
Q 2378 3584 2631 3529 
Q 2884 3475 3122 3366 
z
" transform="scale(0.015625)"/>
     </defs>
     <use xlink:href="#DejaVuSans-20"/>
     <use xlink:href="#DejaVuSans-72" x="31.787109"/>
     <use xlink:href="#DejaVuSans-65" x="70.650391"/>
     <use xlink:href="#DejaVuSans-61" x="132.173828"/>
     <use xlink:href="#DejaVuSans-63" x="193.453125"/>
     <use xlink:href="#DejaVuSans-68" x="248.433594"/>
     <use xlink:href="#DejaVuSans-20" x="311.8125"/>
     <use xlink:href="#DejaVuSans-35" x="343.599609"/>
     <use xlink:href="#DejaVuSans-2e" x="407.222656"/>
     <use xlink:href="#DejaVuSans-35" x="439.009766"/>
     <use xlink:href="#DejaVuSans-20" x="502.632812"/>
     <use xlink:href="#DejaVuSans-6d" x="534.419922"/>
    </g>
   </g>
   <g id="patch_5">
    <path d="M 96.150498 202.755579 
Q 96.150498 145.924958 96.150498 89.094337 
" style="fill: none; stroke: #1b2a41; stroke-width: 0.9; stroke-linecap: round"/>
    <path d="M 98.150498 198.755579 
L 96.150498 202.755579 
L 94.150498 198.755579 
" style="fill: none; stroke: #1b2a41; stroke-width: 0.9; stroke-linecap: round"/>
    <path d="M 94.150498 93.094337 
L 96.150498 89.094337 
L 98.150498 93.094337 
" style="fill: none; stroke: #1b2a41; stroke-width: 0.9; stroke-linecap: round"/>
   </g>
   <g id="text_16">
    <!-- 7.0 m -->
    <g style="fill: #1b2a41" transform="translate(101.279283 145.923676) scale(0.07 -0.07)">
     <defs>
      <path id="DejaVuSans-37" d="M 525 4666 
L 3525 4666 
L 3525 4397 
L 1831 0 
L 1172 0 
L 2766 4134 
L 525 4134 
L 525 4666 
z
" transform="scale(0.015625)"/>
     </defs>
     <use xlink:href="#DejaVuSans-37"/>
     <use xlink:href="#DejaVuSans-2e" x="63.623047"/>
     <use xlink:href="#DejaVuSans-30" x="95.410156"/>
     <use xlink:href="#DejaVuSans-20" x="159.033203"/>
     <use xlink:href="#DejaVuSans-6d" x="190.820312"/>
    </g>
   </g>
   <g id="text_17">
    <!-- Two rows across, deep headland -->
    <g transform="translate(194.3675 18.721969) scale(0.09 -0.09)">
     <defs>
      <path id="DejaVuSans-54" d="M -19 4666 
L 3928 4666 
L 3928 4134 
L 2272 4134 
L 2272 0 
L 1638 0 
L 1638 4134 
L -19 4134 
L -19 4666 
z
" transform="scale(0.015625)"/>
      <path id="DejaVuSans-73" d="M 2834 3397 
L 2834 2853 
Q 2591 2978 2328 3040 
Q 2066 3103 1784 3103 
Q 1356 3103 1142 2972 
Q 928 2841 928 2578 
Q 928 2378 1081 2264 
Q 1234 2150 1697 2047 
L 1894 2003 
Q 2506 1872 2764 1633 
Q 3022 1394 3022 966 
Q 3022 478 2636 193 
Q 2250 -91 1575 -91 
Q 1294 -91 989 -36 
Q 684 19 347 128 
L 347 722 
Q 666 556 975 473 
Q 1284 391 1588 391 
Q 1994 391 2212 530 
Q 2431 669 2431 922 
Q 2431 1156 2273 1281 
Q 2116 1406 1581 1522 
L 1381 1569 
Q 847 1681 609 1914 
Q 372 2147 372 2553 
Q 372 3047 722 3315 
Q 1072 3584 1716 3584 
Q 2034 3584 2315 3537 
Q 2597 3491 2834 3397 
z
" transform="scale(0.015625)"/>
      <path id="DejaVuSans-70" d="M 1159 525 
L 1159 -1331 
L 581 -1331 
L 581 3500 
L 1159 3500 
L 1159 2969 
Q 1341 3281 1617 3432 
Q 1894 3584 2278 3584 
Q 2916 3584 3314 3078 
Q 3713 2572 3713 1747 
Q 3713 922 3314 415 
Q 2916 -91 2278 -91 
Q 1894 -91 1617 61 
Q 1341 213 1159 525 
z
M 3116 1747 
Q 3116 2381 2855 2742 
Q 2594 3103 2138 3103 
Q 1681 3103 1420 2742 
Q 1159 2381 1159 1747 
Q 1159 1113 1420 752 
Q 1681 391 2138 391 
Q 2594 391 2855 752 
Q 3116 1113 3116 1747 
z
" transform="scale(0.015625)"/>
     </defs>
     <use xlink:href="#DejaVuSans-54"/>
     <use xlink:href="#DejaVuSans-77" x="44.583984"/>
     <use xlink:href="#DejaVuSans-6f" x="126.371094"/>
     <use xlink:href="#DejaVuSans-20" x="187.552734"/>
     <use xlink:href="#DejaVuSans-72" x="219.339844"/>
     <use xlink:href="#DejaVuSans-6f" x="258.203125"/>
     <use xlink:href="#DejaVuSans-77" x="319.384766"/>
     <use xlink:href="#DejaVuSans-73" x="401.171875"/>
     <use xlink:href="#DejaVuSans-20" x="453.271484"/>
     <use xlink:href="#DejaVuSans-61" x="485.058594"/>
     <use xlink:href="#DejaVuSans-63" x="546.337891"/>
     <use xlink:href="#DejaVuSans-72" x="601.318359"/>
     <use xlink:href="#DejaVuSans-6f" x="640.181641"/>
     <use xlink:href="#DejaVuSans-73" x="701.363281"/>
     <use xlink:href="#DejaVuSans-73" x="753.462891"/>
     <use xlink:href="#DejaVuSans-2c" x="805.5625"/>
     <use xlink:href="#DejaVuSans-20" x="837.349609"/>
     <use xlink:href="#DejaVuSans-64" x="869.136719"/>
     <use xlink:href="#DejaVuSans-65" x="932.613281"/>
     <use xlink:href="#DejaVuSans-65" x="994.136719"/>
     <use xlink:href="#DejaVuSans-70" x="1055.660156"/>
     <use xlink:href="#DejaVuSans-20" x="1119.136719"/>
     <use xlink:href="#DejaVuSans-68" x="1150.923828"/>
     <use xlink:href="#DejaVuSans-65" x="1214.302734"/>
     <use xlink:href="#DejaVuSans-61" x="1275.826172"/>
     <use xlink:href="#DejaVuSans-64" x="1337.105469"/>
     <use xlink:href="#DejaVuSans-6c" x="1400.582031"/>
     <use xlink:href="#DejaVuSans-61" x="1428.365234"/>
     <use xlink:href="#DejaVuSans-6e" x="1489.644531"/>
     <use xlink:href="#DejaVuSans-64" x="1553.023438"/>
    </g>
    <!-- u-turn, R = 3.50 m -->
    <g transform="translate(224.944297 28.8) scale(0.09 -0.09)">
     <defs>
      <path id="DejaVuSans-2d" d="M 313 2009 
L 1997 2009 
L 1997 1497 
L 313 1497 
L 313 2009 
z
" transform="scale(0.015625)"/>
      <path id="DejaVuSans-52" d="M 2841 2188 
Q 3044 2119 3236 1894 
Q 3428 1669 3622 1275 
L 4263 0 
L 3584 0 
L 2988 1197 
Q 2756 1666 2539 1819 
Q 2322 1972 1947 1972 
L 1259 1972 
L 1259 0 
L 628 0 
L 628 4666 
L 2053 4666 
Q 2853 4666 3247 4331 
Q 3641 3997 3641 3322 
Q 3641 2881 3436 2590 
Q 3231 2300 2841 2188 
z
M 1259 4147 
L 1259 2491 
L 2053 2491 
Q 2509 2491 2742 2702 
Q 2975 2913 2975 3322 
Q 2975 3731 2742 3939 
Q 2509 4147 2053 4147 
L 1259 4147 
z
" transform="scale(0.015625)"/>
      <path id="DejaVuSans-3d" d="M 678 2906 
L 4684 2906 
L 4684 2381 
L 678 2381 
L 678 2906 
z
M 678 1631 
L 4684 1631 
L 4684 1100 
L 678 1100 
L 678 1631 
z
" transform="scale(0.015625)"/>
      <path id="DejaVuSans-33" d="M 2597 2516 
Q 3050 2419 3304 2112 
Q 3559 1806 3559 1356 
Q 3559 666 3084 287 
Q 2609 -91 1734 -91 
Q 1441 -91 1130 -33 
Q 819 25 488 141 
L 488 750 
Q 750 597 1062 519 
Q 1375 441 1716 441 
Q 2309 441 2620 675 
Q 2931 909 2931 1356 
Q 2931 1769 2642 2001 
Q 2353 2234 1838 2234 
L 1294 2234 
L 1294 2753 
L 1863 2753 
Q 2328 2753 2575 2939 
Q 2822 3125 2822 3475 
Q 2822 3834 2567 4026 
Q 2313 4219 1838 4219 
Q 1578 4219 1281 4162 
Q 984 4106 628 3988 
L 628 4550 
Q 988 4650 1302 4700 
Q 1616 4750 1894 4750 
Q 2613 4750 3031 4423 
Q 3450 4097 3450 3541 
Q 3450 3153 3228 2886 
Q 3006 2619 2597 2516 
z
" transform="scale(0.015625)"/>
     </defs>
     <use xlink:href="#DejaVuSans-75"/>
     <use xlink:href="#DejaVuSans-2d" x="63.378906"/>
     <use xlink:href="#DejaVuSans-74" x="99.462891"/>
     <use xlink:href="#DejaVuSans-75" x="138.671875"/>
     <use xlink:href="#DejaVuSans-72" x="202.050781"/>
     <use xlink:href="#DejaVuSans-6e" x="241.414062"/>
     <use xlink:href="#DejaVuSans-2c" x="304.792969"/>
     <use xlink:href="#DejaVuSans-20" x="336.580078"/>
     <use xlink:href="#DejaVuSans-52" x="368.367188"/>
     <use xlink:href="#DejaVuSans-20" x="437.849609"/>
     <use xlink:href="#DejaVuSans-3d" x="469.636719"/>
     <use xlink:href="#DejaVuSans-20" x="553.425781"/>
     <use xlink:href="#DejaVuSans-33" x="585.212891"/>
     <use xlink:href="#DejaVuSans-2e" x="648.835938"/>
     <use xlink:href="#DejaVuSans-35" x="680.623047"/>
     <use xlink:href="#DejaVuSans-30" x="744.246094"/>
     <use xlink:href="#DejaVuSans-20" x="807.869141"/>
     <use xlink:href="#DejaVuSans-6d" x="839.65625"/>
    </g>
   </g>
   <g id="legend_1">
    <g id="line2d_27">
     <path d="M 68.258597 43.968906 
L 75.258597 43.968906 
L 82.258597 43.968906 
" style="fill: none; stroke: #0b6e4f; stroke-width: 2; stroke-linecap: square"/>
    </g>
    <g id="text_18">
     <!-- rear axle -->
     <g transform="translate(87.858597 46.418906) scale(0.07 -0.07)">
      <defs>
       <path id="DejaVuSans-78" d="M 3513 3500 
L 2247 1797 
L 3578 0 
L 2900 0 
L 1881 1375 
L 863 0 
L 184 0 
L 1544 1831 
L 300 3500 
L 978 3500 
L 1906 2253 
L 2834 3500 
L 3513 3500 
z
" transform="scale(0.015625)"/>
      </defs>
      <use xlink:href="#DejaVuSans-72"/>
      <use xlink:href="#DejaVuSans-65" x="38.863281"/>
      <use xlink:href="#DejaVuSans-61" x="100.386719"/>
      <use xlink:href="#DejaVuSans-72" x="161.666016"/>
      <use xlink:href="#DejaVuSans-20" x="202.779297"/>
      <use xlink:href="#DejaVuSans-61" x="234.566406"/>
      <use xlink:href="#DejaVuSans-78" x="295.845703"/>
      <use xlink:href="#DejaVuSans-6c" x="355.025391"/>
      <use xlink:href="#DejaVuSans-65" x="382.808594"/>
     </g>
    </g>
   </g>
  </g>
  <g id="axes_2">
   <g id="patch_6">
    <path d="M 26.62 475.896801 
L 507.6 475.896801 
L 507.6 325.590551 
L 26.62 325.590551 
z
" style="fill: #ffffff"/>
   </g>
   <g id="line2d_28">
    <path d="M 252.870461 421.3119 
L 252.870461 435.55144 
L 203.823158 435.55144 
L 203.823158 421.3119 
L 252.870461 421.3119 
" clip-path="url(#p7bebf19e8d)" style="fill: none; stroke: #c0c8d1; stroke-width: 0.6; stroke-linecap: square"/>
   </g>
   <g id="line2d_29">
    <path d="M 273.927408 441.228177 
L 268.480163 454.384621 
L 223.163524 435.621889 
L 228.610769 422.465445 
L 273.927408 441.228177 
" clip-path="url(#p7bebf19e8d)" style="fill: none; stroke: #c0c8d1; stroke-width: 0.6; stroke-linecap: square"/>
   </g>
   <g id="line2d_30">
    <path d="M 285.763865 467.684772 
L 275.698038 477.756694 
L 241.005862 443.085513 
L 251.071689 433.013591 
L 285.763865 467.684772 
" clip-path="url(#p7bebf19e8d)" style="fill: none; stroke: #c0c8d1; stroke-width: 0.6; stroke-linecap: square"/>
   </g>
   <g id="line2d_31">
    <path d="M 295.182626 489.740158 
L 283.81942 498.321652 
L 254.260942 459.181721 
L 265.624147 450.600227 
L 295.182626 489.740158 
" clip-path="url(#p7bebf19e8d)" style="fill: none; stroke: #c0c8d1; stroke-width: 0.6; stroke-linecap: square"/>
   </g>
   <g id="line2d_32">
    <path d="M 319.872503 490.807761 
L 312.706712 503.112879 
L 270.322417 478.430712 
L 277.488207 466.125594 
L 319.872503 490.807761 
" clip-path="url(#p7bebf19e8d)" style="fill: none; stroke: #c0c8d1; stroke-width: 0.6; stroke-linecap: square"/>
   </g>
   <g id="line2d_33">
    <path d="M 343.057993 482.254234 
L 341.202266 496.372335 
L 292.573253 489.980385 
L 294.42898 475.862284 
L 343.057993 482.254234 
" clip-path="url(#p7bebf19e8d)" style="fill: none; stroke: #c0c8d1; stroke-width: 0.6; stroke-linecap: square"/>
   </g>
   <g id="line2d_34">
    <path d="M 361.139036 465.407702 
L 364.881515 479.146637 
L 317.558516 492.037396 
L 313.816037 478.298461 
L 361.139036 465.407702 
" clip-path="url(#p7bebf19e8d)" style="fill: none; stroke: #c0c8d1; stroke-width: 0.6; stroke-linecap: square"/>
   </g>
   <g id="line2d_35">
    <path d="M 371.30815 442.883961 
L 380.067732 454.110457 
L 341.39869 484.282349 
L 332.639108 473.055853 
L 371.30815 442.883961 
" clip-path="url(#p7bebf19e8d)" style="fill: none; stroke: #c0c8d1; stroke-width: 0.6; stroke-linecap: square"/>
   </g>
   <g id="line2d_36">
    <path d="M 371.986355 418.180321 
L 384.402921 425.151216 
L 360.392061 467.919387 
L 347.975495 460.948492 
L 371.986355 418.180321 
" clip-path="url(#p7bebf19e8d)" style="fill: none; stroke: #c0c8d1; stroke-width: 0.6; stroke-linecap: square"/>
   </g>
   <g id="line2d_37">
    <path d="M 363.068344 395.132569 
L 377.213947 396.765477 
L 371.589487 445.489222 
L 357.443883 443.856314 
L 363.068344 395.132569 
" clip-path="url(#p7bebf19e8d)" style="fill: none; stroke: #c0c8d1; stroke-width: 0.6; stroke-linecap: square"/>
   </g>
   <g id="line2d_38">
    <path d="M 345.938836 377.319379 
L 359.617059 373.360755 
L 373.25232 420.474634 
L 359.574097 424.433258 
L 345.938836 377.319379 
" clip-path="url(#p7bebf19e8d)" style="fill: none; stroke: #c0c8d1; stroke-width: 0.6; stroke-linecap: square"/>
   </g>
   <g id="line2d_39">
    <path d="M 323.257567 367.506643 
L 334.344562 358.571151 
L 365.122368 396.75969 
L 354.035373 405.695182 
L 323.257567 367.506643 
" clip-path="url(#p7bebf19e8d)" style="fill: none; stroke: #c0c8d1; stroke-width: 0.6; stroke-linecap: square"/>
   </g>
   <g id="line2d_40">
    <path d="M 298.546305 367.218005 
L 305.320571 354.693078 
L 348.461987 378.026662 
L 341.68772 390.551589 
L 298.546305 367.218005 
" clip-path="url(#p7bebf19e8d)" style="fill: none; stroke: #c0c8d1; stroke-width: 0.6; stroke-linecap: square"/>
   </g>
   <g id="line2d_41">
    <path d="M 275.642021 376.498282 
L 277.051703 362.328692 
L 325.858069 367.184266 
L 324.448386 381.353856 
L 275.642021 376.498282 
" clip-path="url(#p7bebf19e8d)" style="fill: none; stroke: #c0c8d1; stroke-width: 0.6; stroke-linecap: square"/>
   </g>
   <g id="matplotlib.axis_3">
    <g id="xtick_6">
     <g id="line2d_42">
      <g>
       <use xlink:href="#m694debfcd8" x="42.441711" y="475.896801" style="stroke: #000000; stroke-width: 0.8"/>
      </g>
     </g>
     <g id="text_19">
      <!-- −10 -->
      <g transform="translate(36.110304 487.455864) scale(0.06 -0.06)">
       <use xlink:href="#DejaVuSans-2212"/>
       <use xlink:href="#DejaVuSans-31" x="83.789062"/>
       <use xlink:href="#DejaVuSans-30" x="147.412109"/>
      </g>
     </g>
    </g>
    <g id="xtick_7">
     <g id="line2d_43">
      <g>
       <use xlink:href="#m694debfcd8" x="121.550263" y="475.896801" style="stroke: #000000; stroke-width: 0.8"/>
      </g>
     </g>
     <g id="text_20">
      <!-- −5 -->
      <g transform="translate(117.127607 487.455864) scale(0.06 -0.06)">
       <use xlink:href="#DejaVuSans-2212"/>
       <use xlink:href="#DejaVuSans-35" x="83.789062"/>
      </g>
     </g>
    </g>
    <g id="xtick_8">
     <g id="line2d_44">
      <g>
       <use xlink:href="#m694debfcd8" x="200.658816" y="475.896801" style="stroke: #000000; stroke-width: 0.8"/>
      </g>
     </g>
     <g id="text_21">
      <!-- 0 -->
      <g transform="translate(198.750066 487.455864) scale(0.06 -0.06)">
       <use xlink:href="#DejaVuSans-30"/>
      </g>
     </g>
    </g>
    <g id="xtick_9">
     <g id="line2d_45">
      <g>
       <use xlink:href="#m694debfcd8" x="279.767368" y="475.896801" style="stroke: #000000; stroke-width: 0.8"/>
      </g>
     </g>
     <g id="text_22">
      <!-- 5 -->
      <g transform="translate(277.858618 487.455864) scale(0.06 -0.06)">
       <use xlink:href="#DejaVuSans-35"/>
      </g>
     </g>
    </g>
    <g id="xtick_10">
     <g id="line2d_46">
      <g>
       <use xlink:href="#m694debfcd8" x="358.875921" y="475.896801" style="stroke: #000000; stroke-width: 0.8"/>
      </g>
     </g>
     <g id="text_23">
      <!-- 10 -->
      <g transform="translate(355.058421 487.455864) scale(0.06 -0.06)">
       <use xlink:href="#DejaVuSans-31"/>
       <use xlink:href="#DejaVuSans-30" x="63.623047"/>
      </g>
     </g>
    </g>
    <g id="xtick_11">
     <g id="line2d_47">
      <g>
       <use xlink:href="#m694debfcd8" x="437.984474" y="475.896801" style="stroke: #000000; stroke-width: 0.8"/>
      </g>
     </g>
     <g id="text_24">
      <!-- 15 -->
      <g transform="translate(434.166974 487.455864) scale(0.06 -0.06)">
       <use xlink:href="#DejaVuSans-31"/>
       <use xlink:href="#DejaVuSans-35" x="63.623047"/>
      </g>
     </g>
    </g>
    <g id="text_25">
     <!-- along the row, out of the mouth (m) -->
     <g transform="translate(204.055859 498.022583) scale(0.07 -0.07)">
      <use xlink:href="#DejaVuSans-61"/>
      <use xlink:href="#DejaVuSans-6c" x="61.279297"/>
      <use xlink:href="#DejaVuSans-6f" x="89.0625"/>
      <use xlink:href="#DejaVuSans-6e" x="150.244141"/>
      <use xlink:href="#DejaVuSans-67" x="213.623047"/>
      <use xlink:href="#DejaVuSans-20" x="277.099609"/>
      <use xlink:href="#DejaVuSans-74" x="308.886719"/>
      <use xlink:href="#DejaVuSans-68" x="348.095703"/>
      <use xlink:href="#DejaVuSans-65" x="411.474609"/>
      <use xlink:href="#DejaVuSans-20" x="472.998047"/>
      <use xlink:href="#DejaVuSans-72" x="504.785156"/>
      <use xlink:href="#DejaVuSans-6f" x="543.648438"/>
      <use xlink:href="#DejaVuSans-77" x="604.830078"/>
      <use xlink:href="#DejaVuSans-2c" x="686.617188"/>
      <use xlink:href="#DejaVuSans-20" x="718.404297"/>
      <use xlink:href="#DejaVuSans-6f" x="750.191406"/>
      <use xlink:href="#DejaVuSans-75" x="811.373047"/>
      <use xlink:href="#DejaVuSans-74" x="874.751953"/>
      <use xlink:href="#DejaVuSans-20" x="913.960938"/>
      <use xlink:href="#DejaVuSans-6f" x="945.748047"/>
      <use xlink:href="#DejaVuSans-66" x="1006.929688"/>
      <use xlink:href="#DejaVuSans-20" x="1042.134766"/>
      <use xlink:href="#DejaVuSans-74" x="1073.921875"/>
      <use xlink:href="#DejaVuSans-68" x="1113.130859"/>
      <use xlink:href="#DejaVuSans-65" x="1176.509766"/>
      <use xlink:href="#DejaVuSans-20" x="1238.033203"/>
      <use xlink:href="#DejaVuSans-6d" x="1269.820312"/>
      <use xlink:href="#DejaVuSans-6f" x="1367.232422"/>
      <use xlink:href="#DejaVuSans-75" x="1428.414062"/>
      <use xlink:href="#DejaVuSans-74" x="1491.792969"/>
      <use xlink:href="#DejaVuSans-68" x="1531.001953"/>
      <use xlink:href="#DejaVuSans-20" x="1594.380859"/>
      <use xlink:href="#DejaVuSans-28" x="1626.167969"/>
      <use xlink:href="#DejaVuSans-6d" x="1665.181641"/>
      <use xlink:href="#DejaVuSans-29" x="1762.59375"/>
     </g>
    </g>
   </g>
   <g id="matplotlib.axis_4">
    <g id="ytick_8">
     <g id="line2d_48">
      <g>
       <use xlink:href="#m38d8fc73f7" x="26.62" y="460.075091" style="stroke: #000000; stroke-width: 0.8"/>
      </g>
     </g>
     <g id="text_26">
      <!-- −2 -->
      <g transform="translate(10.774688 462.354622) scale(0.06 -0.06)">
       <use xlink:href="#DejaVuSans-2212"/>
       <use xlink:href="#DejaVuSans-32" x="83.789062"/>
      </g>
     </g>
    </g>
    <g id="ytick_9">
     <g id="line2d_49">
      <g>
       <use xlink:href="#m38d8fc73f7" x="26.62" y="428.43167" style="stroke: #000000; stroke-width: 0.8"/>
      </g>
     </g>
     <g id="text_27">
      <!-- 0 -->
      <g transform="translate(15.8025 430.711201) scale(0.06 -0.06)">
       <use xlink:href="#DejaVuSans-30"/>
      </g>
     </g>
    </g>
    <g id="ytick_10">
     <g id="line2d_50">
      <g>
       <use xlink:href="#m38d8fc73f7" x="26.62" y="396.788249" style="stroke: #000000; stroke-width: 0.8"/>
      </g>
     </g>
     <g id="text_28">
      <!-- 2 -->
      <g transform="translate(15.8025 399.06778) scale(0.06 -0.06)">
       <use xlink:href="#DejaVuSans-32"/>
      </g>
     </g>
    </g>
    <g id="ytick_11">
     <g id="line2d_51">
      <g>
       <use xlink:href="#m38d8fc73f7" x="26.62" y="365.144828" style="stroke: #000000; stroke-width: 0.8"/>
      </g>
     </g>
     <g id="text_29">
      <!-- 4 -->
      <g transform="translate(15.8025 367.424359) scale(0.06 -0.06)">
       <use xlink:href="#DejaVuSans-34"/>
      </g>
     </g>
    </g>
    <g id="ytick_12">
     <g id="line2d_52">
      <g>
       <use xlink:href="#m38d8fc73f7" x="26.62" y="333.501407" style="stroke: #000000; stroke-width: 0.8"/>
      </g>
     </g>
     <g id="text_30">
      <!-- 6 -->
      <g transform="translate(15.8025 335.780938) scale(0.06 -0.06)">
       <use xlink:href="#DejaVuSans-36"/>
      </g>
     </g>
    </g>
   </g>
   <g id="line2d_53">
    <path d="M 200.658816 475.896801 
L 200.658816 325.590551 
" clip-path="url(#p7bebf19e8d)" style="fill: none; stroke: #1b2a41; stroke-width: 1.4; stroke-linecap: square"/>
   </g>
   <g id="line2d_54">
    <path d="M 475.956579 475.896801 
L 475.956579 325.590551 
" clip-path="url(#p7bebf19e8d)" style="fill: none; stroke-dasharray: 4.44,1.92; stroke-dashoffset: 0; stroke: #b3402f; stroke-width: 1.2"/>
   </g>
   <g id="line2d_55">
    <path d="M 384.49298 475.896801 
L 384.49298 325.590551 
" clip-path="url(#p7bebf19e8d)" style="fill: none; stroke-dasharray: 1,1.65; stroke-dashoffset: 0; stroke: #0b6e4f"/>
   </g>
   <g id="line2d_56">
    <path d="M 26.62 428.43167 
L 200.658816 428.43167 
" clip-path="url(#p7bebf19e8d)" style="fill: none; stroke: #1b2a41; stroke-opacity: 0.18; stroke-width: 6"/>
   </g>
   <g id="line2d_57">
    <path d="M 26.62 373.055683 
L 200.658816 373.055683 
" clip-path="url(#p7bebf19e8d)" style="fill: none; stroke: #1b2a41; stroke-opacity: 0.18; stroke-width: 6"/>
   </g>
   <g id="patch_7">
    <path d="M 26.62 475.896801 
L 26.62 325.590551 
" style="fill: none; stroke: #000000; stroke-width: 0.8; stroke-linejoin: miter; stroke-linecap: square"/>
   </g>
   <g id="patch_8">
    <path d="M 26.62 475.896801 
L 507.6 475.896801 
" style="fill: none; stroke: #000000; stroke-width: 0.8; stroke-linejoin: miter; stroke-linecap: square"/>
   </g>
   <g id="line2d_58">
    <path d="M 213.316184 428.43167 
L 217.223706 428.56868 
L 221.112034 428.979039 
L 224.962072 429.66073 
L 228.754909 430.610404 
L 232.471916 431.823399 
L 236.094836 433.293755 
L 239.605874 435.014252 
L 242.987785 436.976437 
L 246.223958 439.170674 
L 249.298499 441.586186 
L 252.196305 444.211107 
L 254.903145 447.032546 
L 257.405722 450.036643 
L 259.691745 453.208645 
L 261.749985 456.53297 
L 263.395775 459.231468 
L 265.191747 461.83243 
L 267.132135 464.327507 
L 269.210713 466.708689 
L 271.420807 468.968335 
L 273.755323 471.099191 
L 276.20677 473.094417 
L 278.767276 474.947609 
L 281.428625 476.652819 
L 284.182272 478.204573 
L 287.019381 479.597889 
L 289.930843 480.828297 
L 292.907314 481.891846 
L 295.939239 482.785123 
L 299.016887 483.50526 
L 302.130379 484.049946 
L 305.269721 484.417433 
L 308.424837 484.60654 
L 311.585598 484.616662 
L 314.74186 484.447765 
L 317.883491 484.100391 
L 321.000408 483.575656 
L 324.082605 482.875244 
L 327.120189 482.001403 
L 330.10341 480.956938 
L 333.022692 479.745202 
L 335.868666 478.370084 
L 338.632195 476.835997 
L 341.30441 475.147867 
L 343.876732 473.311111 
L 346.340906 471.331626 
L 348.689022 469.215765 
L 350.913542 466.970319 
L 353.007327 464.602497 
L 354.963655 462.119899 
L 356.776247 459.530493 
L 358.439285 456.84259 
L 359.947432 454.06482 
L 361.295845 451.206097 
L 362.480197 448.275598 
L 363.496686 445.282729 
L 364.34205 442.237096 
L 365.013575 439.148477 
L 365.509106 436.026785 
L 365.827051 432.882039 
L 365.966391 429.724334 
L 365.926678 426.563806 
L 365.708039 423.410599 
L 365.311178 420.274835 
L 364.737366 417.166579 
L 363.988446 414.095808 
L 363.066823 411.072379 
L 361.975454 408.105996 
L 360.717842 405.20618 
L 359.298024 402.382241 
L 357.720558 399.643242 
L 355.990507 396.997975 
L 354.113424 394.454931 
L 352.095334 392.022272 
L 349.942715 389.707807 
L 347.662477 387.518966 
L 345.261938 385.462773 
L 342.748804 383.545829 
L 340.131142 381.774287 
L 337.417354 380.153833 
L 334.616151 378.689669 
L 331.736524 377.386495 
L 328.787717 376.248493 
L 325.779193 375.279316 
L 322.720612 374.482075 
L 319.621789 373.85933 
L 316.492672 373.413078 
L 313.343304 373.144753 
L 310.183795 373.055215 
L 310.183795 373.055215 
" clip-path="url(#p7bebf19e8d)" style="fill: none; stroke: #0b6e4f; stroke-width: 2; stroke-linecap: square"/>
   </g>
   <g id="text_31">
    <!--  headland 17.4 m -->
    <g style="fill: #b3402f" transform="translate(481.275485 450.582065) rotate(-90) scale(0.07 -0.07)">
     <use xlink:href="#DejaVuSans-20"/>
     <use xlink:href="#DejaVuSans-68" x="31.787109"/>
     <use xlink:href="#DejaVuSans-65" x="95.166016"/>
     <use xlink:href="#DejaVuSans-61" x="156.689453"/>
     <use xlink:href="#DejaVuSans-64" x="217.96875"/>
     <use xlink:href="#DejaVuSans-6c" x="281.445312"/>
     <use xlink:href="#DejaVuSans-61" x="309.228516"/>
     <use xlink:href="#DejaVuSans-6e" x="370.507812"/>
     <use xlink:href="#DejaVuSans-64" x="433.886719"/>
     <use xlink:href="#DejaVuSans-20" x="497.363281"/>
     <use xlink:href="#DejaVuSans-31" x="529.150391"/>
     <use xlink:href="#DejaVuSans-37" x="592.773438"/>
     <use xlink:href="#DejaVuSans-2e" x="656.396484"/>
     <use xlink:href="#DejaVuSans-34" x="688.183594"/>
     <use xlink:href="#DejaVuSans-20" x="751.806641"/>
     <use xlink:href="#DejaVuSans-6d" x="783.59375"/>
    </g>
   </g>
   <g id="text_32">
    <!--  reach 11.6 m -->
    <g style="fill: #0b6e4f" transform="translate(389.811886 450.582065) rotate(-90) scale(0.07 -0.07)">
     <use xlink:href="#DejaVuSans-20"/>
     <use xlink:href="#DejaVuSans-72" x="31.787109"/>
     <use xlink:href="#DejaVuSans-65" x="70.650391"/>
     <use xlink:href="#DejaVuSans-61" x="132.173828"/>
     <use xlink:href="#DejaVuSans-63" x="193.453125"/>
     <use xlink:href="#DejaVuSans-68" x="248.433594"/>
     <use xlink:href="#DejaVuSans-20" x="311.8125"/>
     <use xlink:href="#DejaVuSans-31" x="343.599609"/>
     <use xlink:href="#DejaVuSans-31" x="407.222656"/>
     <use xlink:href="#DejaVuSans-2e" x="470.845703"/>
     <use xlink:href="#DejaVuSans-36" x="502.632812"/>
     <use xlink:href="#DejaVuSans-20" x="566.255859"/>
     <use xlink:href="#DejaVuSans-6d" x="598.042969"/>
    </g>
   </g>
   <g id="patch_9">
    <path d="M 58.263421 425.427929 
Q 58.263421 400.743487 58.263421 376.059045 
" style="fill: none; stroke: #1b2a41; stroke-width: 0.9; stroke-linecap: round"/>
    <path d="M 60.263421 421.427929 
L 58.263421 425.427929 
L 56.263421 421.427929 
" style="fill: none; stroke: #1b2a41; stroke-width: 0.9; stroke-linecap: round"/>
    <path d="M 56.263421 380.059045 
L 58.263421 376.059045 
L 60.263421 380.059045 
" style="fill: none; stroke: #1b2a41; stroke-width: 0.9; stroke-linecap: round"/>
   </g>
   <g id="text_33">
    <!-- 3.5 m -->
    <g style="fill: #1b2a41" transform="translate(63.009934 400.743676) scale(0.07 -0.07)">
     <use xlink:href="#DejaVuSans-33"/>
     <use xlink:href="#DejaVuSans-2e" x="63.623047"/>
     <use xlink:href="#DejaVuSans-35" x="95.410156"/>
     <use xlink:href="#DejaVuSans-20" x="159.033203"/>
     <use xlink:href="#DejaVuSans-6d" x="190.820312"/>
    </g>
   </g>
   <g id="text_34">
    <!-- One row across, deep headland -->
    <g transform="translate(195.988203 309.51252) scale(0.09 -0.09)">
     <defs>
      <path id="DejaVuSans-4f" d="M 2522 4238 
Q 1834 4238 1429 3725 
Q 1025 3213 1025 2328 
Q 1025 1447 1429 934 
Q 1834 422 2522 422 
Q 3209 422 3611 934 
Q 4013 1447 4013 2328 
Q 4013 3213 3611 3725 
Q 3209 4238 2522 4238 
z
M 2522 4750 
Q 3503 4750 4090 4092 
Q 4678 3434 4678 2328 
Q 4678 1225 4090 567 
Q 3503 -91 2522 -91 
Q 1538 -91 948 565 
Q 359 1222 359 2328 
Q 359 3434 948 4092 
Q 1538 4750 2522 4750 
z
" transform="scale(0.015625)"/>
     </defs>
     <use xlink:href="#DejaVuSans-4f"/>
     <use xlink:href="#DejaVuSans-6e" x="78.710938"/>
     <use xlink:href="#DejaVuSans-65" x="142.089844"/>
     <use xlink:href="#DejaVuSans-20" x="203.613281"/>
     <use xlink:href="#DejaVuSans-72" x="235.400391"/>
     <use xlink:href="#DejaVuSans-6f" x="274.263672"/>
     <use xlink:href="#DejaVuSans-77" x="335.445312"/>
     <use xlink:href="#DejaVuSans-20" x="417.232422"/>
     <use xlink:href="#DejaVuSans-61" x="449.019531"/>
     <use xlink:href="#DejaVuSans-63" x="510.298828"/>
     <use xlink:href="#DejaVuSans-72" x="565.279297"/>
     <use xlink:href="#DejaVuSans-6f" x="604.142578"/>
     <use xlink:href="#DejaVuSans-73" x="665.324219"/>
     <use xlink:href="#DejaVuSans-73" x="717.423828"/>
     <use xlink:href="#DejaVuSans-2c" x="769.523438"/>
     <use xlink:href="#DejaVuSans-20" x="801.310547"/>
     <use xlink:href="#DejaVuSans-64" x="833.097656"/>
     <use xlink:href="#DejaVuSans-65" x="896.574219"/>
     <use xlink:href="#DejaVuSans-65" x="958.097656"/>
     <use xlink:href="#DejaVuSans-70" x="1019.621094"/>
     <use xlink:href="#DejaVuSans-20" x="1083.097656"/>
     <use xlink:href="#DejaVuSans-68" x="1114.884766"/>
     <use xlink:href="#DejaVuSans-65" x="1178.263672"/>
     <use xlink:href="#DejaVuSans-61" x="1239.787109"/>
     <use xlink:href="#DejaVuSans-64" x="1301.066406"/>
     <use xlink:href="#DejaVuSans-6c" x="1364.542969"/>
     <use xlink:href="#DejaVuSans-61" x="1392.326172"/>
     <use xlink:href="#DejaVuSans-6e" x="1453.605469"/>
     <use xlink:href="#DejaVuSans-64" x="1516.984375"/>
    </g>
    <!-- bulb, R = 3.53 m -->
    <g transform="translate(228.843125 319.590551) scale(0.09 -0.09)">
     <defs>
      <path id="DejaVuSans-62" d="M 3116 1747 
Q 3116 2381 2855 2742 
Q 2594 3103 2138 3103 
Q 1681 3103 1420 2742 
Q 1159 2381 1159 1747 
Q 1159 1113 1420 752 
Q 1681 391 2138 391 
Q 2594 391 2855 752 
Q 3116 1113 3116 1747 
z
M 1159 2969 
Q 1341 3281 1617 3432 
Q 1894 3584 2278 3584 
Q 2916 3584 3314 3078 
Q 3713 2572 3713 1747 
Q 3713 922 3314 415 
Q 2916 -91 2278 -91 
Q 1894 -91 1617 61 
Q 1341 213 1159 525 
L 1159 0 
L 581 0 
L 581 4863 
L 1159 4863 
L 1159 2969 
z
" transform="scale(0.015625)"/>
     </defs>
     <use xlink:href="#DejaVuSans-62"/>
     <use xlink:href="#DejaVuSans-75" x="63.476562"/>
     <use xlink:href="#DejaVuSans-6c" x="126.855469"/>
     <use xlink:href="#DejaVuSans-62" x="154.638672"/>
     <use xlink:href="#DejaVuSans-2c" x="218.115234"/>
     <use xlink:href="#DejaVuSans-20" x="249.902344"/>
     <use xlink:href="#DejaVuSans-52" x="281.689453"/>
     <use xlink:href="#DejaVuSans-20" x="351.171875"/>
     <use xlink:href="#DejaVuSans-3d" x="382.958984"/>
     <use xlink:href="#DejaVuSans-20" x="466.748047"/>
     <use xlink:href="#DejaVuSans-33" x="498.535156"/>
     <use xlink:href="#DejaVuSans-2e" x="562.158203"/>
     <use xlink:href="#DejaVuSans-35" x="593.945312"/>
     <use xlink:href="#DejaVuSans-33" x="657.568359"/>
     <use xlink:href="#DejaVuSans-20" x="721.191406"/>
     <use xlink:href="#DejaVuSans-6d" x="752.978516"/>
    </g>
   </g>
  </g>
  <g id="axes_3">
   <g id="patch_10">
    <path d="M 26.62 750.757635 
L 507.6 750.757635 
L 507.6 560.369718 
L 26.62 560.369718 
z
" style="fill: #ffffff"/>
   </g>
   <g id="line2d_59">
    <path d="M 313.203917 681.61676 
L 313.203917 699.65351 
L 251.077333 699.65351 
L 251.077333 681.61676 
L 313.203917 681.61676 
" clip-path="url(#p39d22b8926)" style="fill: none; stroke: #c0c8d1; stroke-width: 0.6; stroke-linecap: square"/>
   </g>
   <g id="line2d_60">
    <path d="M 332.837456 658.016804 
L 339.676279 674.706766 
L 282.188631 698.262713 
L 275.349808 681.57275 
L 332.837456 658.016804 
" clip-path="url(#p39d22b8926)" style="fill: none; stroke: #c0c8d1; stroke-width: 0.6; stroke-linecap: square"/>
   </g>
   <g id="line2d_61">
    <path d="M 310.375052 652.129227 
L 323.068716 664.943096 
L 278.932057 708.665718 
L 266.238393 695.85185 
L 310.375052 652.129227 
" clip-path="url(#p39d22b8926)" style="fill: none; stroke: #c0c8d1; stroke-width: 0.6; stroke-linecap: square"/>
   </g>
   <g id="line2d_62">
    <path d="M 276.756838 666.976117 
L 293.389731 673.952594 
L 269.359644 731.243669 
L 252.726752 724.267192 
L 276.756838 666.976117 
" clip-path="url(#p39d22b8926)" style="fill: none; stroke: #c0c8d1; stroke-width: 0.6; stroke-linecap: square"/>
   </g>
   <g id="line2d_63">
    <path d="M 261.463193 641.116983 
L 279.499937 641.131938 
L 279.448428 703.2585 
L 261.411684 703.243545 
L 261.463193 641.116983 
" clip-path="url(#p39d22b8926)" style="fill: none; stroke: #c0c8d1; stroke-width: 0.6; stroke-linecap: square"/>
   </g>
   <g id="line2d_64">
    <path d="M 237.351674 621.177894 
L 253.995247 614.226935 
L 277.937438 671.554798 
L 261.293865 678.505756 
L 237.351674 621.177894 
" clip-path="url(#p39d22b8926)" style="fill: none; stroke: #c0c8d1; stroke-width: 0.6; stroke-linecap: square"/>
   </g>
   <g id="line2d_65">
    <path d="M 207.410935 612.095779 
L 220.079557 599.257152 
L 264.301495 642.893519 
L 251.632873 655.732147 
L 207.410935 612.095779 
" clip-path="url(#p39d22b8926)" style="fill: none; stroke: #c0c8d1; stroke-width: 0.6; stroke-linecap: square"/>
   </g>
   <g id="line2d_66">
    <path d="M 176.285434 615.279473 
L 183.013928 598.544727 
L 240.655831 621.720651 
L 233.927336 638.455397 
L 176.285434 615.279473 
" clip-path="url(#p39d22b8926)" style="fill: none; stroke: #c0c8d1; stroke-width: 0.6; stroke-linecap: square"/>
   </g>
   <g id="matplotlib.axis_5">
    <g id="xtick_12">
     <g id="line2d_67">
      <g>
       <use xlink:href="#m694debfcd8" x="46.660833" y="750.757635" style="stroke: #000000; stroke-width: 0.8"/>
      </g>
     </g>
     <g id="text_35">
      <!-- −10 -->
      <g transform="translate(40.329427 762.316697) scale(0.06 -0.06)">
       <use xlink:href="#DejaVuSans-2212"/>
       <use xlink:href="#DejaVuSans-31" x="83.789062"/>
       <use xlink:href="#DejaVuSans-30" x="147.412109"/>
      </g>
     </g>
    </g>
    <g id="xtick_13">
     <g id="line2d_68">
      <g>
       <use xlink:href="#m694debfcd8" x="146.865" y="750.757635" style="stroke: #000000; stroke-width: 0.8"/>
      </g>
     </g>
     <g id="text_36">
      <!-- −5 -->
      <g transform="translate(142.442344 762.316697) scale(0.06 -0.06)">
       <use xlink:href="#DejaVuSans-2212"/>
       <use xlink:href="#DejaVuSans-35" x="83.789062"/>
      </g>
     </g>
    </g>
    <g id="xtick_14">
     <g id="line2d_69">
      <g>
       <use xlink:href="#m694debfcd8" x="247.069167" y="750.757635" style="stroke: #000000; stroke-width: 0.8"/>
      </g>
     </g>
     <g id="text_37">
      <!-- 0 -->
      <g transform="translate(245.160417 762.316697) scale(0.06 -0.06)">
       <use xlink:href="#DejaVuSans-30"/>
      </g>
     </g>
    </g>
    <g id="xtick_15">
     <g id="line2d_70">
      <g>
       <use xlink:href="#m694debfcd8" x="347.273333" y="750.757635" style="stroke: #000000; stroke-width: 0.8"/>
      </g>
     </g>
     <g id="text_38">
      <!-- 5 -->
      <g transform="translate(345.364583 762.316697) scale(0.06 -0.06)">
       <use xlink:href="#DejaVuSans-35"/>
      </g>
     </g>
    </g>
    <g id="xtick_16">
     <g id="line2d_71">
      <g>
       <use xlink:href="#m694debfcd8" x="447.4775" y="750.757635" style="stroke: #000000; stroke-width: 0.8"/>
      </g>
     </g>
     <g id="text_39">
      <!-- 10 -->
      <g transform="translate(443.66 762.316697) scale(0.06 -0.06)">
       <use xlink:href="#DejaVuSans-31"/>
       <use xlink:href="#DejaVuSans-30" x="63.623047"/>
      </g>
     </g>
    </g>
    <g id="text_40">
     <!-- along the row, out of the mouth (m) -->
     <g transform="translate(204.055859 772.883416) scale(0.07 -0.07)">
      <use xlink:href="#DejaVuSans-61"/>
      <use xlink:href="#DejaVuSans-6c" x="61.279297"/>
      <use xlink:href="#DejaVuSans-6f" x="89.0625"/>
      <use xlink:href="#DejaVuSans-6e" x="150.244141"/>
      <use xlink:href="#DejaVuSans-67" x="213.623047"/>
      <use xlink:href="#DejaVuSans-20" x="277.099609"/>
      <use xlink:href="#DejaVuSans-74" x="308.886719"/>
      <use xlink:href="#DejaVuSans-68" x="348.095703"/>
      <use xlink:href="#DejaVuSans-65" x="411.474609"/>
      <use xlink:href="#DejaVuSans-20" x="472.998047"/>
      <use xlink:href="#DejaVuSans-72" x="504.785156"/>
      <use xlink:href="#DejaVuSans-6f" x="543.648438"/>
      <use xlink:href="#DejaVuSans-77" x="604.830078"/>
      <use xlink:href="#DejaVuSans-2c" x="686.617188"/>
      <use xlink:href="#DejaVuSans-20" x="718.404297"/>
      <use xlink:href="#DejaVuSans-6f" x="750.191406"/>
      <use xlink:href="#DejaVuSans-75" x="811.373047"/>
      <use xlink:href="#DejaVuSans-74" x="874.751953"/>
      <use xlink:href="#DejaVuSans-20" x="913.960938"/>
      <use xlink:href="#DejaVuSans-6f" x="945.748047"/>
      <use xlink:href="#DejaVuSans-66" x="1006.929688"/>
      <use xlink:href="#DejaVuSans-20" x="1042.134766"/>
      <use xlink:href="#DejaVuSans-74" x="1073.921875"/>
      <use xlink:href="#DejaVuSans-68" x="1113.130859"/>
      <use xlink:href="#DejaVuSans-65" x="1176.509766"/>
      <use xlink:href="#DejaVuSans-20" x="1238.033203"/>
      <use xlink:href="#DejaVuSans-6d" x="1269.820312"/>
      <use xlink:href="#DejaVuSans-6f" x="1367.232422"/>
      <use xlink:href="#DejaVuSans-75" x="1428.414062"/>
      <use xlink:href="#DejaVuSans-74" x="1491.792969"/>
      <use xlink:href="#DejaVuSans-68" x="1531.001953"/>
      <use xlink:href="#DejaVuSans-20" x="1594.380859"/>
      <use xlink:href="#DejaVuSans-28" x="1626.167969"/>
      <use xlink:href="#DejaVuSans-6d" x="1665.181641"/>
      <use xlink:href="#DejaVuSans-29" x="1762.59375"/>
     </g>
    </g>
   </g>
   <g id="matplotlib.axis_6">
    <g id="ytick_13">
     <g id="line2d_72">
      <g>
       <use xlink:href="#m38d8fc73f7" x="26.62" y="730.716801" style="stroke: #000000; stroke-width: 0.8"/>
      </g>
     </g>
     <g id="text_41">
      <!-- −2 -->
      <g transform="translate(10.774688 732.996333) scale(0.06 -0.06)">
       <use xlink:href="#DejaVuSans-2212"/>
       <use xlink:href="#DejaVuSans-32" x="83.789062"/>
      </g>
     </g>
    </g>
    <g id="ytick_14">
     <g id="line2d_73">
      <g>
       <use xlink:href="#m38d8fc73f7" x="26.62" y="690.635135" style="stroke: #000000; stroke-width: 0.8"/>
      </g>
     </g>
     <g id="text_42">
      <!-- 0 -->
      <g transform="translate(15.8025 692.914666) scale(0.06 -0.06)">
       <use xlink:href="#DejaVuSans-30"/>
      </g>
     </g>
    </g>
    <g id="ytick_15">
     <g id="line2d_74">
      <g>
       <use xlink:href="#m38d8fc73f7" x="26.62" y="650.553468" style="stroke: #000000; stroke-width: 0.8"/>
      </g>
     </g>
     <g id="text_43">
      <!-- 2 -->
      <g transform="translate(15.8025 652.832999) scale(0.06 -0.06)">
       <use xlink:href="#DejaVuSans-32"/>
      </g>
     </g>
    </g>
    <g id="ytick_16">
     <g id="line2d_75">
      <g>
       <use xlink:href="#m38d8fc73f7" x="26.62" y="610.471801" style="stroke: #000000; stroke-width: 0.8"/>
      </g>
     </g>
     <g id="text_44">
      <!-- 4 -->
      <g transform="translate(15.8025 612.751333) scale(0.06 -0.06)">
       <use xlink:href="#DejaVuSans-34"/>
      </g>
     </g>
    </g>
    <g id="ytick_17">
     <g id="line2d_76">
      <g>
       <use xlink:href="#m38d8fc73f7" x="26.62" y="570.390135" style="stroke: #000000; stroke-width: 0.8"/>
      </g>
     </g>
     <g id="text_45">
      <!-- 6 -->
      <g transform="translate(15.8025 572.669666) scale(0.06 -0.06)">
       <use xlink:href="#DejaVuSans-36"/>
      </g>
     </g>
    </g>
   </g>
   <g id="line2d_77">
    <path d="M 247.069167 750.757635 
L 247.069167 560.369718 
" clip-path="url(#p39d22b8926)" style="fill: none; stroke: #1b2a41; stroke-width: 1.4; stroke-linecap: square"/>
   </g>
   <g id="line2d_78">
    <path d="M 331.240667 750.757635 
L 331.240667 560.369718 
" clip-path="url(#p39d22b8926)" style="fill: none; stroke-dasharray: 4.44,1.92; stroke-dashoffset: 0; stroke: #b3402f; stroke-width: 1.2"/>
   </g>
   <g id="line2d_79">
    <path d="M 345.273615 750.757635 
L 345.273615 560.369718 
" clip-path="url(#p39d22b8926)" style="fill: none; stroke-dasharray: 1,1.65; stroke-dashoffset: 0; stroke: #0b6e4f"/>
   </g>
   <g id="line2d_80">
    <path d="M 26.62 690.635135 
L 247.069167 690.635135 
" clip-path="url(#p39d22b8926)" style="fill: none; stroke: #1b2a41; stroke-opacity: 0.18; stroke-width: 6"/>
   </g>
   <g id="line2d_81">
    <path d="M 26.62 620.492218 
L 247.069167 620.492218 
" clip-path="url(#p39d22b8926)" style="fill: none; stroke: #1b2a41; stroke-opacity: 0.18; stroke-width: 6"/>
   </g>
   <g id="patch_11">
    <path d="M 26.62 750.757635 
L 26.62 560.369718 
" style="fill: none; stroke: #000000; stroke-width: 0.8; stroke-linejoin: miter; stroke-linecap: square"/>
   </g>
   <g id="patch_12">
    <path d="M 26.62 750.757635 
L 507.6 750.757635 
" style="fill: none; stroke: #000000; stroke-width: 0.8; stroke-linejoin: miter; stroke-linecap: square"/>
   </g>
   <g id="line2d_82">
    <path d="M 263.101833 690.635135 
L 267.025743 690.526109 
L 270.937545 690.199369 
L 274.825168 689.655922 
L 278.676618 688.897446 
L 282.48001 687.926281 
L 286.223608 686.745423 
L 289.895861 685.358516 
L 293.485437 683.76984 
L 296.981262 681.984297 
L 295.254138 682.959547 
L 291.885381 685.053503 
L 288.639417 687.333174 
L 285.526474 689.791377 
L 282.556359 692.420368 
L 279.738428 695.211864 
L 277.081562 698.15707 
L 274.594129 701.246707 
L 272.283967 704.47104 
L 270.158353 707.819913 
L 268.223986 711.282773 
L 266.486959 714.848711 
L 265.317009 717.584063 
L 266.038672 715.717681 
L 267.322061 711.927377 
L 268.388843 708.070504 
L 269.235597 704.15943 
L 269.859607 700.206696 
L 270.258872 696.224977 
L 270.432113 692.227042 
L 270.378773 688.225711 
L 270.099024 684.233815 
L 269.593763 680.264155 
L 268.86461 676.329459 
L 267.913903 672.442346 
L 266.74469 668.615279 
L 265.360722 664.860532 
L 263.766435 661.190144 
L 261.966943 657.615886 
L 259.968016 654.149219 
L 257.776063 650.801258 
L 255.398114 647.582741 
L 252.841793 644.503988 
L 250.115299 641.574871 
L 247.227374 638.804784 
L 244.187279 636.202608 
L 241.004763 633.776689 
L 237.69003 631.534806 
L 234.253711 629.484147 
L 230.706823 627.631288 
L 227.060742 625.982172 
L 223.327159 624.542085 
L 219.518046 623.315646 
L 215.645617 622.306788 
L 211.722292 621.518746 
L 207.760649 620.954047 
L 203.773394 620.614502 
L 199.773312 620.501199 
L 199.773312 620.501199 
" clip-path="url(#p39d22b8926)" style="fill: none; stroke: #0b6e4f; stroke-width: 2; stroke-linecap: square"/>
   </g>
   <g id="text_46">
    <!--  headland 4.2 m -->
    <g style="fill: #b3402f" transform="translate(336.559573 718.692301) rotate(-90) scale(0.07 -0.07)">
     <use xlink:href="#DejaVuSans-20"/>
     <use xlink:href="#DejaVuSans-68" x="31.787109"/>
     <use xlink:href="#DejaVuSans-65" x="95.166016"/>
     <use xlink:href="#DejaVuSans-61" x="156.689453"/>
     <use xlink:href="#DejaVuSans-64" x="217.96875"/>
     <use xlink:href="#DejaVuSans-6c" x="281.445312"/>
     <use xlink:href="#DejaVuSans-61" x="309.228516"/>
     <use xlink:href="#DejaVuSans-6e" x="370.507812"/>
     <use xlink:href="#DejaVuSans-64" x="433.886719"/>
     <use xlink:href="#DejaVuSans-20" x="497.363281"/>
     <use xlink:href="#DejaVuSans-34" x="529.150391"/>
     <use xlink:href="#DejaVuSans-2e" x="592.773438"/>
     <use xlink:href="#DejaVuSans-32" x="624.560547"/>
     <use xlink:href="#DejaVuSans-20" x="688.183594"/>
     <use xlink:href="#DejaVuSans-6d" x="719.970703"/>
    </g>
   </g>
   <g id="text_47">
    <!--  reach 4.9 m -->
    <g style="fill: #0b6e4f" transform="translate(350.592522 718.692301) rotate(-90) scale(0.07 -0.07)">
     <defs>
      <path id="DejaVuSans-39" d="M 703 97 
L 703 672 
Q 941 559 1184 500 
Q 1428 441 1663 441 
Q 2288 441 2617 861 
Q 2947 1281 2994 2138 
Q 2813 1869 2534 1725 
Q 2256 1581 1919 1581 
Q 1219 1581 811 2004 
Q 403 2428 403 3163 
Q 403 3881 828 4315 
Q 1253 4750 1959 4750 
Q 2769 4750 3195 4129 
Q 3622 3509 3622 2328 
Q 3622 1225 3098 567 
Q 2575 -91 1691 -91 
Q 1453 -91 1209 -44 
Q 966 3 703 97 
z
M 1959 2075 
Q 2384 2075 2632 2365 
Q 2881 2656 2881 3163 
Q 2881 3666 2632 3958 
Q 2384 4250 1959 4250 
Q 1534 4250 1286 3958 
Q 1038 3666 1038 3163 
Q 1038 2656 1286 2365 
Q 1534 2075 1959 2075 
z
" transform="scale(0.015625)"/>
     </defs>
     <use xlink:href="#DejaVuSans-20"/>
     <use xlink:href="#DejaVuSans-72" x="31.787109"/>
     <use xlink:href="#DejaVuSans-65" x="70.650391"/>
     <use xlink:href="#DejaVuSans-61" x="132.173828"/>
     <use xlink:href="#DejaVuSans-63" x="193.453125"/>
     <use xlink:href="#DejaVuSans-68" x="248.433594"/>
     <use xlink:href="#DejaVuSans-20" x="311.8125"/>
     <use xlink:href="#DejaVuSans-34" x="343.599609"/>
     <use xlink:href="#DejaVuSans-2e" x="407.222656"/>
     <use xlink:href="#DejaVuSans-39" x="439.009766"/>
     <use xlink:href="#DejaVuSans-20" x="502.632812"/>
     <use xlink:href="#DejaVuSans-6d" x="534.419922"/>
    </g>
   </g>
   <g id="patch_13">
    <path d="M 66.701667 687.629591 
Q 66.701667 655.564297 66.701667 623.499003 
" style="fill: none; stroke: #1b2a41; stroke-width: 0.9; stroke-linecap: round"/>
    <path d="M 68.701667 683.629591 
L 66.701667 687.629591 
L 64.701667 683.629591 
" style="fill: none; stroke: #1b2a41; stroke-width: 0.9; stroke-linecap: round"/>
    <path d="M 64.701667 627.499003 
L 66.701667 623.499003 
L 68.701667 627.499003 
" style="fill: none; stroke: #1b2a41; stroke-width: 0.9; stroke-linecap: round"/>
   </g>
   <g id="text_48">
    <!-- 3.5 m -->
    <g style="fill: #1b2a41" transform="translate(72.713917 655.563676) scale(0.07 -0.07)">
     <use xlink:href="#DejaVuSans-33"/>
     <use xlink:href="#DejaVuSans-2e" x="63.623047"/>
     <use xlink:href="#DejaVuSans-35" x="95.410156"/>
     <use xlink:href="#DejaVuSans-20" x="159.033203"/>
     <use xlink:href="#DejaVuSans-6d" x="190.820312"/>
    </g>
   </g>
   <g id="text_49">
    <!-- One row across, shallow headland -->
    <g transform="translate(190.351953 544.291687) scale(0.09 -0.09)">
     <use xlink:href="#DejaVuSans-4f"/>
     <use xlink:href="#DejaVuSans-6e" x="78.710938"/>
     <use xlink:href="#DejaVuSans-65" x="142.089844"/>
     <use xlink:href="#DejaVuSans-20" x="203.613281"/>
     <use xlink:href="#DejaVuSans-72" x="235.400391"/>
     <use xlink:href="#DejaVuSans-6f" x="274.263672"/>
     <use xlink:href="#DejaVuSans-77" x="335.445312"/>
     <use xlink:href="#DejaVuSans-20" x="417.232422"/>
     <use xlink:href="#DejaVuSans-61" x="449.019531"/>
     <use xlink:href="#DejaVuSans-63" x="510.298828"/>
     <use xlink:href="#DejaVuSans-72" x="565.279297"/>
     <use xlink:href="#DejaVuSans-6f" x="604.142578"/>
     <use xlink:href="#DejaVuSans-73" x="665.324219"/>
     <use xlink:href="#DejaVuSans-73" x="717.423828"/>
     <use xlink:href="#DejaVuSans-2c" x="769.523438"/>
     <use xlink:href="#DejaVuSans-20" x="801.310547"/>
     <use xlink:href="#DejaVuSans-73" x="833.097656"/>
     <use xlink:href="#DejaVuSans-68" x="885.197266"/>
     <use xlink:href="#DejaVuSans-61" x="948.576172"/>
     <use xlink:href="#DejaVuSans-6c" x="1009.855469"/>
     <use xlink:href="#DejaVuSans-6c" x="1037.638672"/>
     <use xlink:href="#DejaVuSans-6f" x="1065.421875"/>
     <use xlink:href="#DejaVuSans-77" x="1126.603516"/>
     <use xlink:href="#DejaVuSans-20" x="1208.390625"/>
     <use xlink:href="#DejaVuSans-68" x="1240.177734"/>
     <use xlink:href="#DejaVuSans-65" x="1303.556641"/>
     <use xlink:href="#DejaVuSans-61" x="1365.080078"/>
     <use xlink:href="#DejaVuSans-64" x="1426.359375"/>
     <use xlink:href="#DejaVuSans-6c" x="1489.835938"/>
     <use xlink:href="#DejaVuSans-61" x="1517.619141"/>
     <use xlink:href="#DejaVuSans-6e" x="1578.898438"/>
     <use xlink:href="#DejaVuSans-64" x="1642.277344"/>
    </g>
    <!-- 3-point, R = 3.53 m -->
    <g transform="translate(222.695703 554.369718) scale(0.09 -0.09)">
     <defs>
      <path id="DejaVuSans-69" d="M 603 3500 
L 1178 3500 
L 1178 0 
L 603 0 
L 603 3500 
z
M 603 4863 
L 1178 4863 
L 1178 4134 
L 603 4134 
L 603 4863 
z
" transform="scale(0.015625)"/>
     </defs>
     <use xlink:href="#DejaVuSans-33"/>
     <use xlink:href="#DejaVuSans-2d" x="63.623047"/>
     <use xlink:href="#DejaVuSans-70" x="99.707031"/>
     <use xlink:href="#DejaVuSans-6f" x="163.183594"/>
     <use xlink:href="#DejaVuSans-69" x="224.365234"/>
     <use xlink:href="#DejaVuSans-6e" x="252.148438"/>
     <use xlink:href="#DejaVuSans-74" x="315.527344"/>
     <use xlink:href="#DejaVuSans-2c" x="354.736328"/>
     <use xlink:href="#DejaVuSans-20" x="386.523438"/>
     <use xlink:href="#DejaVuSans-52" x="418.310547"/>
     <use xlink:href="#DejaVuSans-20" x="487.792969"/>
     <use xlink:href="#DejaVuSans-3d" x="519.580078"/>
     <use xlink:href="#DejaVuSans-20" x="603.369141"/>
     <use xlink:href="#DejaVuSans-33" x="635.15625"/>
     <use xlink:href="#DejaVuSans-2e" x="698.779297"/>
     <use xlink:href="#DejaVuSans-35" x="730.566406"/>
     <use xlink:href="#DejaVuSans-33" x="794.189453"/>
     <use xlink:href="#DejaVuSans-20" x="857.8125"/>
     <use xlink:href="#DejaVuSans-6d" x="889.599609"/>
    </g>
   </g>
  </g>
 </g>
 <defs>
  <clipPath id="pfb6a7b79a2">
   <rect x="61.958597" y="34.8" width="410.302805" height="222.247353"/>
  </clipPath>
  <clipPath id="p7bebf19e8d">
   <rect x="26.62" y="325.590551" width="480.98" height="150.30625"/>
  </clipPath>
  <clipPath id="p39d22b8926">
   <rect x="26.62" y="560.369718" width="480.98" height="190.387917"/>
  </clipPath>
 </defs>
</svg>
